<svg xmlns="http://www.w3.org/2000/svg" version="1.1" xmlns:xlink="http://www.w3.org/1999/xlink" xmlns:svgjs="http://svgjs.dev/svgjs" width="1000" height="255" viewBox="0 0 1000 255"><g transform="matrix(1,0,0,1,-0.6060606060606233,0.33700958015867855)"><svg viewBox="0 0 396 101" data-background-color="#ffffff" preserveAspectRatio="xMidYMid meet" height="255" width="1000" xmlns="http://www.w3.org/2000/svg" xmlns:xlink="http://www.w3.org/1999/xlink"><g id="tight-bounds" transform="matrix(1,0,0,1,0.2400000000000091,-0.1334822258667714)"><svg viewBox="0 0 395.52 101.26690046062785" height="101.26690046062785" width="395.52"><g><svg viewBox="0 0 570.6211970789533 146.09890767930492" height="101.26690046062785" width="395.52"><g transform="matrix(1,0,0,1,175.10119707895328,42.33658023152587)"><svg viewBox="0 0 395.52 61.425747216253164" height="61.425747216253164" width="395.52"><g id="textblocktransform"><svg viewBox="0 0 395.52 61.425747216253164" height="61.425747216253164" width="395.52" id="textblock"><g><svg viewBox="0 0 395.52 61.425747216253164" height="61.425747216253164" width="395.52"><g transform="matrix(1,0,0,1,0,0)"><svg width="395.52" viewBox="4.449999809265137 -38.099998474121094 255.9300079345703 39.75" height="61.425747216253164" data-palette-color="#061a2d"><path d="M4.45 0L4.45-36.25 9.9-36.25 9.9 0 4.45 0ZM45.15-36.25L50.6-36.25 50.6 1.65Q49.9 0.75 47.9-1.25 45.9-3.25 43.3-5.85 40.7-8.45 37.77-11.3 34.85-14.15 32.25-16.73 29.65-19.3 27.7-21.33 25.75-23.35 25.1-24.2L25.1-24.2 24.15-25.5 24.3-23.9 24.3 0 18.8 0 18.8-37.95Q19.35-37.25 20.62-35.95 21.9-34.65 23.62-32.93 25.35-31.2 27.42-29.2 29.5-27.2 31.62-25.15 33.75-23.1 35.82-21.13 37.9-19.15 39.62-17.45 41.35-15.75 42.6-14.45 43.85-13.15 44.35-12.5L44.35-12.5 45.3-11.1 45.15-12.8 45.15-36.25ZM80.25-34.25L80.25-34.25 78.3-29.8Q76.25-30.55 74.22-31 72.2-31.45 70.35-31.45L70.35-31.45Q67.2-31.45 65.32-30.15 63.45-28.85 63.45-26.85L63.45-26.85Q63.45-25.15 64.8-24.13 66.15-23.1 68.15-22.28 70.15-21.45 72.5-20.63 74.85-19.8 76.85-18.5 78.85-17.2 80.2-15.23 81.55-13.25 81.55-10.15L81.55-10.15Q81.55-7.75 80.67-5.83 79.8-3.9 78.07-2.5 76.35-1.1 73.77-0.35 71.2 0.4 67.75 0.4L67.75 0.4Q65.55 0.4 63.77 0.1 62-0.2 60.57-0.68 59.15-1.15 58.07-1.7 57-2.25 56.25-2.7L56.25-2.7 58.65-7.45Q60.65-6.3 63.1-5.6 65.55-4.9 67.55-4.9L67.55-4.9Q68.55-4.9 70.02-5.15 71.5-5.4 72.85-6.03 74.2-6.65 75.17-7.7 76.15-8.75 76.15-10.35L76.15-10.35Q76.15-11.8 75.37-12.83 74.6-13.85 73.32-14.63 72.05-15.4 70.42-16.03 68.8-16.65 67.1-17.32 65.4-18 63.77-18.75 62.15-19.5 60.87-20.58 59.6-21.65 58.82-23.08 58.05-24.5 58.05-26.5L58.05-26.5Q58.05-28.35 58.8-30.15 59.55-31.95 61.05-33.35 62.55-34.75 64.77-35.6 67-36.45 69.95-36.45L69.95-36.45Q71.75-36.45 73.47-36.15 75.2-35.85 76.6-35.48 78-35.1 78.97-34.75 79.95-34.4 80.25-34.25ZM85.29-36.25L108.84-36.25 108.84-31.05 99.69-31.05 99.69 0 94.24 0 94.24-31.05 85.29-31.05 85.29-36.25ZM139.89 0L134.49 0Q134.24-0.55 133.79-1.6 133.34-2.65 132.77-4.03 132.19-5.4 131.52-7.03 130.84-8.65 130.14-10.4L130.14-10.4 117.34-10.4 113.04 0 107.64 0 123.79-37.95Q124.09-37.25 124.87-35.4 125.64-33.55 126.72-30.98 127.79-28.4 129.12-25.28 130.44-22.15 131.82-18.95 133.19-15.75 134.52-12.65 135.84-9.55 136.94-6.95 138.04-4.35 138.82-2.53 139.59-0.7 139.89 0L139.89 0ZM123.24-24.7L119.24-15 128.29-15Q127.59-16.65 126.97-18.18 126.34-19.7 125.82-20.98 125.29-22.25 124.89-23.2 124.49-24.15 124.29-24.7L124.29-24.7Q124.24-24.8 124.07-25.4 123.89-26 123.79-26.5L123.79-26.5Q123.69-26 123.49-25.4 123.29-24.8 123.24-24.7L123.24-24.7ZM140.49-18.1L140.49-18.1Q140.49-21.85 141.94-25.23 143.39-28.6 145.89-31.15 148.39-33.7 151.74-35.18 155.09-36.65 158.94-36.65L158.94-36.65Q162.74-36.65 166.11-35.18 169.49-33.7 172.04-31.15 174.59-28.6 176.06-25.23 177.54-21.85 177.54-18.1L177.54-18.1Q177.54-14.25 176.19-10.9 174.84-7.55 172.44-4.75L172.44-4.75 178.69-5.2 178.69 0 162.84 0Q161.84 0.2 160.89 0.3 159.94 0.4 158.94 0.4L158.94 0.4Q155.09 0.4 151.74-1.05 148.39-2.5 145.89-5.03 143.39-7.55 141.94-10.9 140.49-14.25 140.49-18.1ZM145.94-18.05L145.94-18.05Q145.94-15.3 146.96-12.88 147.99-10.45 149.76-8.65 151.54-6.85 153.94-5.8 156.34-4.75 159.09-4.75L159.09-4.75Q161.79-4.75 164.16-5.8 166.54-6.85 168.31-8.65 170.09-10.45 171.11-12.88 172.14-15.3 172.14-18.1L172.14-18.1Q172.14-20.85 171.09-23.28 170.04-25.7 168.26-27.5 166.49-29.3 164.09-30.35 161.69-31.4 158.99-31.4L158.99-31.4Q156.29-31.4 153.89-30.35 151.49-29.3 149.74-27.5 147.99-25.7 146.96-23.25 145.94-20.8 145.94-18.05ZM197.54 0.4L197.54 0.4Q194.64 0.4 192.14-0.55 189.64-1.5 187.76-3.23 185.89-4.95 184.81-7.38 183.74-9.8 183.74-12.8L183.74-12.8 183.74-36.25 189.24-36.25 189.24-12.95Q189.24-11.2 189.86-9.73 190.49-8.25 191.61-7.13 192.74-6 194.24-5.38 195.74-4.75 197.54-4.75L197.54-4.75Q199.29-4.75 200.81-5.38 202.34-6 203.46-7.13 204.59-8.25 205.24-9.73 205.89-11.2 205.89-12.95L205.89-12.95 205.89-36.25 211.39-36.25 211.39-12.8Q211.39-9.8 210.31-7.38 209.24-4.95 207.36-3.23 205.49-1.5 202.96-0.55 200.44 0.4 197.54 0.4ZM219.88 0L219.88-36.25 225.33-36.25 225.33 0 219.88 0ZM238.48-36.25L238.48-36.25 259.93-36.25 239.33-5.25 260.38-5.25 260.38 0 229.83 0Q230.33-0.65 231.38-2.25 232.43-3.85 233.83-6.03 235.23-8.2 236.91-10.8 238.58-13.4 240.33-16.07 242.08-18.75 243.76-21.35 245.43-23.95 246.83-26.1 248.23-28.25 249.28-29.8 250.33-31.35 250.83-32L250.83-32 236.33-32Q235.53-32 234.76-32.23 233.98-32.45 233.38-32.85 232.78-33.25 232.41-33.85 232.03-34.45 232.03-35.2L232.03-35.2 232.03-38.1 236.93-38.1 236.93-37.4Q236.93-36.5 237.28-36.38 237.63-36.25 238.48-36.25Z" opacity="1" transform="matrix(1,0,0,1,0,0)" fill="#061a2d" class="undefined-text-0" data-fill-palette-color="primary" id="text-0"></path></svg></g></svg></g></svg></g></svg></g><g><svg viewBox="0 0 146.09890767930492 146.09890767930492" height="146.09890767930492" width="146.09890767930492"><g><svg></svg></g><g id="icon-0"><svg viewBox="0 0 146.09890767930492 146.09890767930492" height="146.09890767930492" width="146.09890767930492"><g><path d="M0 73.049c0-40.344 32.705-73.049 73.049-73.049 40.344 0 73.049 32.705 73.05 73.049 0 40.344-32.705 73.049-73.05 73.05-40.344 0-73.049-32.705-73.049-73.05zM73.049 140.559c37.285 0 67.51-30.225 67.51-67.51 0-37.285-30.225-67.51-67.51-67.51-37.285 0-67.51 30.225-67.51 67.51 0 37.285 30.225 67.51 67.51 67.51z" data-fill-palette-color="accent" fill="#061a2d" stroke="transparent"></path></g><g transform="matrix(1,0,0,1,33.95504780163372,33.95461693853842)"><svg viewBox="0 0 78.18881207603748 78.18967380222807" height="78.18967380222807" width="78.18881207603748"><g><svg xmlns="http://www.w3.org/2000/svg" xmlns:xlink="http://www.w3.org/1999/xlink" version="1.1" x="0" y="0" viewBox="5.464000225067139 5.508999347686768 89.99300384521484 89.9939956665039" enable-background="new 0 0 100 100" xml:space="preserve" height="78.18967380222807" width="78.18881207603748" class="icon-s-0" data-fill-palette-color="accent" id="s-0"><path fill-rule="evenodd" clip-rule="evenodd" d="M50.459 95.503c-2.519 0-4.975-0.259-7.383-0.655l2.064-5.143c1.744 0.236 3.511 0.399 5.319 0.399 2.501 0 4.94-0.261 7.313-0.703l-5.998-6.497h-8.514-1.8-1.8v-5.398h-5.899c-0.623 1.07-1.771 1.8-3.099 1.8-1.988 0-3.601-1.612-3.601-3.601s1.612-3.6 3.601-3.6c1.329 0 2.477 0.728 3.099 1.8h5.899v-1.8-3.601h3.6H61.26v0.77l4.416 4.784c0.315-0.09 0.641-0.153 0.983-0.153 1.988 0 3.6 1.612 3.6 3.601 0 1.987-1.611 3.598-3.6 3.598s-3.599-1.61-3.599-3.598c0-0.296 0.044-0.579 0.11-0.854l-4.197-4.547H43.261v7.2H54.06v0.768l7.725 8.366c6.576-1.96 12.414-5.601 17.071-10.395l-5.483-5.939H72.06V55.081l-5.435-5.883c-1.503 1.309-3.101 2.702-4.651 4.053-0.299 0.263-0.893 0.779-0.893 0.779l-1.621 0.024v0.051h-7.699c-0.623 1.072-1.771 1.801-3.1 1.801-1.988 0-3.6-1.612-3.6-3.601s1.612-3.599 3.6-3.599c1.329 0 2.477 0.728 3.1 1.8h7.699v0.393l10.799-9.623V27.107h-7.198v7.7c1.07 0.623 1.798 1.771 1.798 3.099 0 1.988-1.61 3.601-3.599 3.601-1.987 0-3.6-1.612-3.6-3.601 0-1.329 0.728-2.477 1.8-3.099v-7.7-1.8-1.8h10.799v-7.183c-1.426-0.825-2.89-1.593-4.421-2.238-0.573 0.264-1.206 0.422-1.879 0.422-2.484 0-4.499-2.015-4.499-4.5 0-2.484 2.015-4.499 4.499-4.499 2.243 0 4.087 1.644 4.428 3.788 15.918 6.93 27.07 22.741 27.07 41.209C95.457 75.357 75.312 95.503 50.459 95.503zM81.058 52.306c-1.988 0-3.599-1.61-3.599-3.599 0-1.329 0.729-2.477 1.799-3.101V30.708h1.8 1.801 1.87c-2.753-4.731-6.471-8.829-10.869-12.054v26.453h-2.542c-0.584 0.508-1.25 1.09-1.978 1.723l6.525 7.069-0.271 0.207h0.064v5.4h2.3c0.622-1.072 1.77-1.8 3.099-1.8 1.988 0 3.601 1.612 3.601 3.601 0 1.987-1.612 3.6-3.601 3.6-1.329 0-2.477-0.729-3.099-1.8h-2.3v6.168l5.598 6.063c5.489-6.791 8.802-15.415 8.802-24.831 0-5.783-1.266-11.257-3.498-16.199h-3.702v11.298c1.072 0.625 1.8 1.772 1.8 3.101C84.658 50.695 83.046 52.306 81.058 52.306zM50.459 10.908c-1.214 0-2.412 0.076-3.598 0.183v11.386l4.416 4.784c0.314-0.09 0.64-0.153 0.982-0.153 1.988 0 3.601 1.612 3.601 3.601 0 1.988-1.612 3.6-3.601 3.6s-3.599-1.612-3.599-3.6c0-0.295 0.044-0.579 0.111-0.853l-2.535-2.748h-1.918l-6.35 5.536 4.86 5.263h0.431v0.468l0.018 0.02-0.018 0.016v22.897H61.76c0.622-1.073 1.77-1.801 3.099-1.801 1.988 0 3.601 1.612 3.601 3.601s-1.612 3.599-3.601 3.599c-1.329 0-2.477-0.729-3.099-1.799H43.261h-1.8-1.8V39.782L23.152 21.899c-1 0.953-1.942 1.963-2.839 3.015L35.63 41.507h0.431v0.467l0.018 0.02-0.018 0.016v21.097 3.599h-3.599-9-1.798-1.8v-8.999h-8.327c2.744 14.895 13.823 26.857 28.229 30.896l-2.025 5.049C19.088 88.158 5.464 70.936 5.464 50.507c0-24.852 20.146-44.997 44.996-44.997 2.447 0 4.831 0.248 7.172 0.624l-2.062 5.142C53.893 11.06 52.196 10.908 50.459 10.908zM18.068 27.79c-4.534 6.425-7.206 14.251-7.206 22.717 0 1.214 0.063 2.412 0.171 3.599h12.428v1.801 1.8 5.4h9V43.382l-5.627-6.095-5.231 7.245c0.031 0.188 0.06 0.378 0.06 0.575 0 1.988-1.612 3.6-3.6 3.6s-3.6-1.612-3.6-3.6 1.612-3.6 3.6-3.6c0.401 0 0.779 0.081 1.139 0.202l5.142-7.12L18.068 27.79zM43.261 11.594c-6.497 1.195-12.418 3.998-17.389 7.942l9.656 10.461 7.733-6.742V11.594z" fill="#061a2d" data-fill-palette-color="accent"></path></svg></g></svg></g></svg></g></svg></g></svg></g><defs></defs></svg><rect width="395.52" height="101.26690046062785" fill="none" stroke="none" visibility="hidden"></rect></g></svg></g></svg>